<svg xmlns="http://www.w3.org/2000/svg" viewBox="0 0 400 400">
  <!-- Background circle -->
  <circle cx="200" cy="200" r="180" fill="#f8f9fa" stroke="#e9ecef" stroke-width="2"/>
  
  <!-- Owl body -->
  <ellipse cx="200" cy="280" rx="80" ry="100" fill="#1e3a8a"/>
  
  <!-- Owl head -->
  <circle cx="200" cy="180" r="90" fill="#1e3a8a"/>
  
  <!-- Ear tufts -->
  <path d="M130 120 L140 90 L160 110 Z" fill="#1e3a8a"/>
  <path d="M270 120 L260 90 L240 110 Z" fill="#1e3a8a"/>
  
  <!-- Face area -->
  <ellipse cx="200" cy="180" rx="70" ry="75" fill="#f8f9fa"/>
  
  <!-- Eyes -->
  <circle cx="175" cy="160" r="25" fill="#1e3a8a"/>
  <circle cx="225" cy="160" r="25" fill="#1e3a8a"/>
  <circle cx="175" cy="160" r="15" fill="#f8f9fa"/>
  <circle cx="225" cy="160" r="15" fill="#f8f9fa"/>
  <circle cx="175" cy="160" r="8" fill="#1e3a8a"/>
  <circle cx="225" cy="160" r="8" fill="#1e3a8a"/>
  
  <!-- Beak -->
  <path d="M200 190 L190 210 L210 210 Z" fill="#fbbf24"/>
  
  <!-- Wings -->
  <ellipse cx="150" cy="260" rx="30" ry="60" fill="#1e40af" transform="rotate(-20 150 260)"/>
  <ellipse cx="250" cy="260" rx="30" ry="60" fill="#1e40af" transform="rotate(20 250 260)"/>
  
  <!-- Branch -->
  <rect x="320" y="320" width="60" height="8" fill="#92400e" rx="4"/>
  <rect x="340" y="300" width="4" height="20" fill="#92400e"/>
  <rect x="360" y="305" width="4" height="15" fill="#92400e"/>
  
  <!-- Leaves -->
  <ellipse cx="345" cy="295" rx="8" ry="4" fill="#16a34a" transform="rotate(-30 345 295)"/>
  <ellipse cx="365" cy="300" rx="6" ry="3" fill="#16a34a" transform="rotate(20 365 300)"/>
  <ellipse cx="355" cy="290" rx="5" ry="2.5" fill="#16a34a" transform="rotate(-45 355 290)"/>
</svg>